<svg id="Layer_1"
     enable-background="new 0 0 512 512" height="512" viewBox="0 0 512 512" width="512"
     xmlns="http://www.w3.org/2000/svg">
  <g id="XMLID_766_">
    <g id="XMLID_3090_">
      <g id="XMLID_392_">
        <path id="XMLID_395_" d="m167.85 213.003c4.03 0 7.828-2.454 9.347-6.443l5.777-15.168h39.287l5.713 15.14c1.95 5.166 7.719 7.777 12.887 5.824 5.167-1.949 7.775-7.719 5.825-12.887l-32.744-86.765c-.035-.092-.071-.183-.108-.274-1.858-4.515-6.21-7.43-11.092-7.43-.004 0-.008 0-.012 0-4.886.005-9.239 2.93-11.09 7.452-.031.076-.061.151-.09.228l-33.043 86.761c-1.966 5.161.625 10.939 5.786 12.904 1.171.446 2.374.658 3.557.658zm34.858-73.425 12.006 31.813h-24.122z"/>
        <path id="XMLID_398_" d="m310.624 211.698c12.86 0 24.399-5.847 32.491-16.463 7.278-9.549 11.287-22.417 11.287-36.235 0-31.521-17.877-52.698-44.486-52.698h-24.186c-5.523 0-10 4.478-10 10v85.396c0 5.522 4.477 10 10 10zm23.778-52.698c0 16.249-8.167 32.698-23.778 32.698h-14.894v-65.396h14.186c18.053 0 24.486 16.89 24.486 32.698z"/>
        <path id="XMLID_399_" d="m462 0h-412c-27.57 0-50 22.43-50 50v64c0 5.522 4.477 10 10 10s10-4.478 10-10v-64c0-16.542 13.458-30 30-30h412c16.542 0 30 13.458 30 30v218c0 16.542-13.458 30-30 30h-412c-16.542 0-30-13.458-30-30v-64c0-5.522-4.477-10-10-10s-10 4.478-10 10v64c0 27.57 22.43 50 50 50h412c27.57 0 50-22.43 50-50v-218c0-27.57-22.43-50-50-50z"/>
        <path id="XMLID_400_" d="m10 169c2.63 0 5.21-1.07 7.07-2.931 1.86-1.859 2.93-4.439 2.93-7.069s-1.07-5.21-2.93-7.07-4.44-2.93-7.07-2.93-5.21 1.069-7.07 2.93c-1.86 1.86-2.93 4.44-2.93 7.07s1.07 5.21 2.93 7.069c1.86 1.861 4.44 2.931 7.07 2.931z"/>
        <path id="XMLID_403_"
              d="m369.619 415.599c6.456-7.387 10.381-17.04 10.381-27.599v-8c0-23.159-18.841-42-42-42s-42 18.841-42 42v8c0 10.559 3.925 20.212 10.381 27.599-21.878 8.031-39.884 24.151-50.381 44.714-10.497-20.564-28.503-36.683-50.381-44.714 6.456-7.387 10.381-17.04 10.381-27.599v-8c0-23.159-18.841-42-42-42s-42 18.841-42 42v8c0 10.559 3.925 20.212 10.381 27.599-35.2 12.922-60.381 46.776-60.381 86.401 0 5.522 4.477 10 10 10h328c5.523 0 10-4.478 10-10 0-39.625-25.181-73.479-60.381-86.401zm-53.619-27.599v-8c0-12.131 9.869-22 22-22s22 9.869 22 22v8c0 12.131-9.869 22-22 22s-22-9.869-22-22zm-164 0v-8c0-12.131 9.869-22 22-22s22 9.869 22 22v8c0 12.131-9.869 22-22 22s-22-9.869-22-22zm-49.308 104c4.882-34.985 35-62 71.308-62s66.426 27.015 71.308 62zm164 0c4.882-34.985 35-62 71.308-62s66.426 27.015 71.308 62z"/>
      </g>
    </g>
  </g>
</svg>
