<?xml version="1.0" encoding="iso-8859-1"?>
<!-- Generator: Adobe Illustrator 19.0.0, SVG Export Plug-In . SVG Version: 6.00 Build 0)  -->
<svg version="1.1" id="Layer_1" xmlns="http://www.w3.org/2000/svg" xmlns:xlink="http://www.w3.org/1999/xlink" x="0px" y="0px"
	 viewBox="0 0 512 512" style="enable-background:new 0 0 512 512;" xml:space="preserve">
<polygon style="fill:#464655;" points="317.792,419.31 194.206,419.31 203.034,357.517 308.965,357.517 "/>
<path style="fill:#5B5D6E;" d="M441.378,366.344H70.62c-14.626,0-26.483-11.857-26.483-26.483V110.345
	c0-14.626,11.857-26.483,26.483-26.483h370.758c14.626,0,26.483,11.857,26.483,26.483v229.517
	C467.861,354.488,456.004,366.344,441.378,366.344z"/>
<path style="fill:#464655;" d="M467.861,161.884l-80,86.156l-81.818-73.633c-1.827-1.646-4.267-2.431-6.707-2.232
	c-2.449,0.224-4.698,1.461-6.198,3.41l-82.784,107.629l-81.251-65.002c-3.62-2.883-8.836-2.508-11.982,0.884l-72.983,78.596v25.943
	l80.336-86.515l81.87,65.496c1.863,1.487,4.258,2.168,6.578,1.87c2.354-0.285,4.491-1.5,5.94-3.38l82.457-107.202l81.189,73.069
	c3.586,3.22,9.095,2.987,12.371-0.552l72.982-78.596V161.884z"/>
<path style="fill:#FFFFFF;" d="M432.551,339.862H79.448c-4.875,0-8.828-3.953-8.828-8.828V119.173c0-4.875,3.953-8.828,8.828-8.828
	h353.103c4.875,0,8.828,3.953,8.828,8.828v211.862C441.378,335.91,437.426,339.862,432.551,339.862z"/>
<g>
	<path style="fill:#EFF2FA;" d="M123.586,322.207L123.586,322.207c-4.875,0-8.828-3.953-8.828-8.828v-97.103
		c0-4.875,3.953-8.828,8.828-8.828l0,0c4.875,0,8.828,3.953,8.828,8.828v97.103C132.413,318.255,128.461,322.207,123.586,322.207z"
		/>
	<path style="fill:#EFF2FA;" d="M300.137,322.207L300.137,322.207c-4.875,0-8.828-3.953-8.828-8.828V154.483
		c0-4.875,3.953-8.828,8.828-8.828l0,0c4.875,0,8.828,3.953,8.828,8.828v158.896C308.965,318.255,305.012,322.207,300.137,322.207z"
		/>
	<path style="fill:#EFF2FA;" d="M211.862,322.207L211.862,322.207c-4.875,0-8.828-3.953-8.828-8.828v-26.483
		c0-4.875,3.953-8.828,8.828-8.828l0,0c4.875,0,8.828,3.953,8.828,8.828v26.483C220.689,318.255,216.737,322.207,211.862,322.207z"
		/>
	<path style="fill:#EFF2FA;" d="M388.413,322.207L388.413,322.207c-4.875,0-8.828-3.953-8.828-8.828v-70.621
		c0-4.875,3.953-8.828,8.828-8.828l0,0c4.875,0,8.828,3.953,8.828,8.828v70.621C397.24,318.255,393.288,322.207,388.413,322.207z"/>
</g>
<path style="fill:#5B5D6E;" d="M326.62,428.137H185.379c-4.875,0-8.828-3.953-8.828-8.828l0,0c0-4.875,3.953-8.828,8.828-8.828
	H326.62c4.875,0,8.828,3.953,8.828,8.828l0,0C335.447,424.186,331.495,428.137,326.62,428.137z"/>
<path style="fill:#D7DEED;" d="M8.825,339.862c-2.15,0-4.305-0.78-6.004-2.359c-3.573-3.317-3.78-8.903-0.462-12.476
	l114.758-123.586c3.146-3.389,8.374-3.775,11.982-0.886l81.251,65l82.789-107.627c1.498-1.95,3.745-3.185,6.193-3.409
	c2.447-0.222,4.882,0.584,6.709,2.23l81.816,73.634l108.845-117.217c3.316-3.572,8.901-3.78,12.476-0.462
	c3.573,3.317,3.78,8.903,0.462,12.476L394.882,248.766c-3.281,3.533-8.791,3.78-12.374,0.555l-81.187-73.069l-82.462,107.2
	c-1.446,1.879-3.585,3.097-5.939,3.382c-2.355,0.284-4.723-0.391-6.572-1.871l-81.872-65.497L15.297,337.041
	C13.557,338.914,11.195,339.862,8.825,339.862z"/>
<circle style="fill:#C3E678;" cx="211.862" cy="278.069" r="17.655"/>
<circle style="fill:#FF6464;" cx="388.413" cy="242.759" r="17.655"/>
<circle style="fill:#FFD782;" cx="300.137" cy="163.31" r="17.655"/>
<circle style="fill:#00D2FF;" cx="123.586" cy="207.448" r="17.655"/>
<path style="fill:#EFF2FA;" d="M432.551,110.345H79.448c-4.875,0-8.828,3.953-8.828,8.828v17.655c0-4.875,3.953-8.828,8.828-8.828
	h353.103c4.875,0,8.828,3.953,8.828,8.828v-17.655C441.378,114.298,437.426,110.345,432.551,110.345z"/>
<g>
</g>
<g>
</g>
<g>
</g>
<g>
</g>
<g>
</g>
<g>
</g>
<g>
</g>
<g>
</g>
<g>
</g>
<g>
</g>
<g>
</g>
<g>
</g>
<g>
</g>
<g>
</g>
<g>
</g>
</svg>
