<svg id="Capa_1" enable-background="new 0 0 512 512" height="512" viewBox="0 0 512 512" width="512" xmlns="http://www.w3.org/2000/svg"><g><g><g><path d="m104.171 340.631h37.463v133.203h-37.463z" fill="#dff6fd"/></g><g><path d="m504.685 318.425c-9.754-9.754-25.567-9.754-35.321 0l-72.158 72.158h-41.197c13.794 0 24.976-11.182 24.976-24.976 0-13.794-11.182-24.976-24.976-24.976h-72c-4.586 0-9.034-1.576-12.596-4.465l-10.537-8.543c-14.531-11.782-32.669-18.211-51.377-18.211-18.343 0-36.151 6.182-50.548 17.548l-17.317 13.671v133.203l152.022 9.533c9.174.575 18.362-.882 26.908-4.268l85.319-33.806c7.925-3.14 15.123-7.87 21.151-13.897l77.651-77.651c9.753-9.753 9.753-25.567 0-35.32z" fill="#fed2a4"/></g><g><path d="m504.685 318.425c-9.754-9.754-25.567-9.754-35.321 0l-72.158 72.158h-20.653c-15.06 26.05-34.67 51.76-58.484 75.575-6.033 6.033-12.19 11.792-18.441 17.28 7.162-.237 14.246-1.688 20.936-4.338l85.319-33.806c7.925-3.14 15.123-7.87 21.151-13.897l77.651-77.651c9.753-9.754 9.753-25.568 0-35.321z" fill="#ffbd86"/></g><g><path d="m0 325.895v131.457c0 9.103 7.38 16.483 16.483 16.483h87.688v-143.61c0-11.495-9.318-20.813-20.813-20.813h-66.875c-9.103 0-16.483 7.379-16.483 16.483z" fill="#0573ce"/></g><g><path d="m83.358 309.412h-12.488v164.423h33.301v-143.61c0-11.495-9.318-20.813-20.813-20.813z" fill="#0067c5"/></g><g><circle cx="56.243" cy="385.479" fill="#f2fbff" r="16.65"/></g></g><g><g><g><path d="m361.317 104.354c-26.47 0-49.491 9.617-68.421 28.583-6.496 6.508-11.967 13.602-16.605 20.538-4.638-6.936-10.109-14.03-16.605-20.538-18.93-18.966-41.951-28.583-68.421-28.583-45.058 0-81.715 36.658-81.715 81.716s36.658 81.716 81.715 81.716c26.47 0 49.491-9.617 68.421-28.583 6.496-6.508 11.967-13.602 16.605-20.538 4.638 6.936 10.109 14.03 16.605 20.538 18.93 18.966 41.951 28.583 68.421 28.583 45.058 0 81.715-36.657 81.715-81.715s-36.658-81.717-81.715-81.717zm-170.051 130.809c-27.069 0-49.092-22.023-49.092-49.093s22.023-49.093 49.092-49.093c36.518 0 54.669 27.202 66.557 49.093-11.888 21.89-30.039 49.093-66.557 49.093zm170.051-.001c-36.517 0-54.669-27.202-66.557-49.092 11.888-21.891 30.039-49.092 66.557-49.092 27.069 0 49.092 22.023 49.092 49.092s-22.023 49.092-49.092 49.092z" fill="#fe76a8"/></g><g><g><path d="m290.739 178.499c1.262 2.409 2.599 4.954 4.02 7.57 4.29-7.893 9.393-16.484 15.878-24.235-4.313-8.102-10.102-18.405-17.758-28.88-6.489 6.504-11.954 13.591-16.588 20.521 6.149 9.197 10.829 18.117 14.448 25.024z" fill="#fe5694"/></g><g><path d="m261.843 193.641c-1.262-2.409-2.599-4.954-4.02-7.57-4.29 7.893-9.393 16.484-15.878 24.235 4.313 8.102 10.102 18.405 17.758 28.879 6.489-6.504 11.954-13.591 16.587-20.521-6.148-9.197-10.828-18.117-14.447-25.023z" fill="#fe5694"/></g></g></g></g><g><path d="m378.913 375.581h-112.4c-1.989 0-3.896.79-5.304 2.197l-10.927 10.927c-2.929 2.929-2.929 7.678 0 10.606 1.465 1.464 3.385 2.197 5.304 2.197s3.839-.732 5.304-2.197l8.729-8.73h86.45c10.221-.024 19.001-6.189 22.844-15z" fill="#ffbd86"/></g><g fill="#ffe177"><path d="m89.496 245.867h-4.988v-4.988c0-4.142-3.357-7.5-7.5-7.5s-7.5 3.358-7.5 7.5v4.988h-4.987c-4.143 0-7.5 3.358-7.5 7.5s3.357 7.5 7.5 7.5h4.987v4.988c0 4.142 3.357 7.5 7.5 7.5s7.5-3.358 7.5-7.5v-4.988h4.988c4.143 0 7.5-3.358 7.5-7.5s-3.357-7.5-7.5-7.5z"/><path d="m459.968 76.629h-4.988v-4.988c0-4.142-3.357-7.5-7.5-7.5s-7.5 3.358-7.5 7.5v4.988h-4.987c-4.143 0-7.5 3.358-7.5 7.5s3.357 7.5 7.5 7.5h4.987v4.988c0 4.142 3.357 7.5 7.5 7.5s7.5-3.358 7.5-7.5v-4.988h4.988c4.143 0 7.5-3.358 7.5-7.5s-3.358-7.5-7.5-7.5z"/><path d="m156.156 40.998h-4.988v-4.988c0-4.142-3.357-7.5-7.5-7.5s-7.5 3.358-7.5 7.5v4.988h-4.987c-4.143 0-7.5 3.358-7.5 7.5s3.357 7.5 7.5 7.5h4.987v4.988c0 4.142 3.357 7.5 7.5 7.5s7.5-3.358 7.5-7.5v-4.988h4.988c4.143 0 7.5-3.358 7.5-7.5s-3.357-7.5-7.5-7.5z"/><path d="m493.517 233.379h-4.988v-4.988c0-4.142-3.357-7.5-7.5-7.5s-7.5 3.358-7.5 7.5v4.988h-4.987c-4.143 0-7.5 3.358-7.5 7.5s3.357 7.5 7.5 7.5h4.987v4.988c0 4.142 3.357 7.5 7.5 7.5s7.5-3.358 7.5-7.5v-4.988h4.988c4.143 0 7.5-3.358 7.5-7.5s-3.358-7.5-7.5-7.5z"/></g></g></svg>