<svg id="Capa_1" enable-background="new 0 0 512 512" height="512" viewBox="0 0 512 512" width="512" xmlns="http://www.w3.org/2000/svg"><g><g><g><path d="m482.054 239.79c-19.378-19.505-45.154-30.247-72.576-30.247h-88.141c29.519-48.873-7.868-114.286-65.296-113.477-57.417-.811-94.822 64.615-65.294 113.477h-88.141c-56.577 0-102.606 46.295-102.606 103.198 0 56.007 46.423 103.197 102.607 103.197h109.448c5.524 0 10.002-4.479 10.002-10.002s-4.478-10.002-10.002-10.002h-109.448c-45.281 0-82.604-38.087-82.604-83.194 0-45.874 37.056-83.195 82.604-83.195h104.955c27.724 23.229 69.236 23.23 96.959 0h104.956c45.281 0 82.604 38.088 82.604 83.195 0 45.873-37.056 83.194-82.604 83.194h-109.427c-5.524 0-10.002 4.479-10.002 10.002s4.478 10.002 10.002 10.002h109.428c90.554.587 136.932-112.558 72.576-176.148zm-226.011-123.721c57.673.46 76.355 77.075 26.508 104.345-16.381 8.9-36.635 8.9-53.016 0-49.874-27.294-31.127-103.897 26.508-104.345z"/><path d="m290.223 354.035 14.744-52.053 9.868 51.961c.875 4.612 5.325 7.637 9.939 6.766 4.613-.876 7.642-5.325 6.766-9.939l-15.139-79.72c-.006-.033-.013-.067-.02-.102-.934-4.61-4.863-8.014-9.555-8.276-4.697-.294-8.974 2.678-10.417 7.153-.031.097-.061.194-.088.292l-16.135 56.962-16.724-57.05c-.03-.101-.061-.2-.094-.3-1.489-4.463-5.814-7.354-10.494-7.047-4.69.313-8.582 3.762-9.483 8.478l-14.291 79.697c-.829 4.621 2.246 9.039 6.867 9.868 4.626.839 9.039-2.245 9.869-6.867l9.294-51.819 15.27 52.089c.029.1.061.199.093.298 1.413 4.236 5.349 7.072 9.806 7.071h.052c4.478-.022 8.411-2.904 9.787-7.17.028-.097.057-.194.085-.292z"/><path d="m202.504 280.406c11.24-.348 11.232-16.658 0-17.003h-24.678c-4.695 0-8.501 3.807-8.501 8.501v81.091c0 4.695 3.807 8.501 8.501 8.501h24.678c11.24-.348 11.232-16.658 0-17.003h-16.177v-23.543h13.673c11.24-.348 11.232-16.658 0-17.003h-13.673v-23.543h16.177z"/><path d="m79.863 351.706c0 5.072 3.236 9.792 8.693 9.792.675-.003 16.603-.064 22.961-.176 52.796-.98 52.843-97.065-.803-96.245h-22.35c-4.697 0-8.501 3.922-8.501 8.584zm30.851-69.627c31.726-.44 30.861 61.75.504 62.241-3.245.058-9.215.102-14.221.132-.085-23.108-.07-38.536-.116-62.373z"/><path d="m442.409 313.288c0-27.251-22.054-49.421-49.16-49.421-65.127 2.481-65.109 96.372.001 98.842 27.106 0 49.159-22.171 49.159-49.421zm-81.318 0c0-17.876 14.425-32.418 32.157-32.418 42.602 1.625 42.59 63.219 0 64.837-17.731-.001-32.157-14.543-32.157-32.419z"/><path d="m234.442 206.115c6.248 3.607 14.047 3.608 20.296 0l29.314-16.925c13.293-7.674 13.296-27.478 0-35.154l-29.314-16.924c-13.306-7.68-30.444 2.246-30.444 17.577v33.849c-.001 7.338 3.793 13.908 10.148 17.577zm9.855-51.426c0-.259.265-.354.439-.254l29.314 16.924c.195.169.195.339 0 .508l-29.314 16.925c-.244.085-.391 0-.439-.254z"/><path d="m265.274 402.105c-4.954-11.901-23.395-4.262-18.463 7.65 4.936 11.923 23.358 4.282 18.463-7.65z"/></g></g></g></svg>