<svg id="Capa_1" enable-background="new 0 0 607.77 607.77" height="512" viewBox="0 0 607.77 607.77" width="512" xmlns="http://www.w3.org/2000/svg"><g><g id="Page-1_3_"><g id="_x30_04---CPU-Engineering"><path id="Shape_14_" d="m482.529 100.059c-5.689-5.712-13.423-8.914-21.485-8.894h-314.318c-8.061-.02-15.796 3.182-21.485 8.894l-25.172 25.182c-5.718 5.685-8.925 13.421-8.904 21.485v314.318c-.021 8.063 3.185 15.8 8.904 21.485l25.172 25.182c5.688 5.712 13.423 8.914 21.485 8.894h314.318c8.061.02 15.796-3.182 21.485-8.894l25.172-25.182c5.718-5.685 8.925-13.421 8.904-21.485v-314.318c.021-8.063-3.185-15.8-8.904-21.485zm13.817 360.985c.007 2.688-1.062 5.267-2.968 7.162l-25.172 25.182c-1.901 1.896-4.477 2.96-7.162 2.958h-314.318c-2.685.002-5.261-1.062-7.162-2.958l-25.172-25.182c-1.906-1.895-2.975-4.474-2.968-7.162v-314.318c-.007-2.688 1.062-5.267 2.968-7.162l25.172-25.182c1.901-1.896 4.477-2.96 7.162-2.958h314.318c2.685-.002 5.261 1.062 7.162 2.958l25.172 25.182c1.906 1.895 2.975 4.474 2.968 7.162z"/><path id="Shape_13_" d="m597.641 162.072c5.594 0 10.13-4.535 10.13-10.13s-4.535-10.13-10.13-10.13h-40.518v-3.474c.038-13.438-5.302-26.332-14.83-35.808l-37.054-37.054c-9.476-9.527-22.37-14.868-35.808-14.83h-3.474v-40.516c0-5.594-4.535-10.13-10.13-10.13s-10.129 4.535-10.129 10.13v40.518h-40.518v-40.518c0-5.594-4.535-10.13-10.13-10.13s-10.129 4.535-10.129 10.13v40.518h-40.518v-40.518c0-5.594-4.535-10.13-10.13-10.13-5.594 0-10.129 4.535-10.129 10.13v40.518h-40.518v-40.518c0-5.594-4.535-10.13-10.129-10.13s-10.13 4.535-10.13 10.13v40.518h-40.518v-40.518c0-5.594-4.535-10.13-10.13-10.13-5.594 0-10.13 4.535-10.13 10.13v40.518h-40.518v-40.518c0-5.594-4.535-10.13-10.13-10.13s-10.13 4.535-10.13 10.13v40.518h-3.474c-13.438-.038-26.332 5.302-35.808 14.83l-37.054 37.054c-9.527 9.476-14.868 22.37-14.83 35.808v3.474h-40.515c-5.594 0-10.13 4.535-10.13 10.13s4.535 10.13 10.13 10.13h40.518v40.518h-40.518c-5.595-.002-10.13 4.533-10.13 10.128 0 5.594 4.535 10.13 10.13 10.13h40.518v40.518h-40.518c-5.594 0-10.13 4.535-10.13 10.13s4.535 10.129 10.13 10.129h40.518v40.518h-40.518c-5.594 0-10.13 4.535-10.13 10.129s4.535 10.13 10.13 10.13h40.518v40.518h-40.518c-5.594 0-10.13 4.535-10.13 10.129s4.535 10.13 10.13 10.13h40.518v40.518h-40.518c-5.594 0-10.13 4.535-10.13 10.129s4.535 10.13 10.13 10.13h40.518v3.474c-.038 13.438 5.302 26.332 14.83 35.808l37.054 37.054c9.476 9.528 22.37 14.868 35.808 14.83h3.474v40.518c0 5.594 4.535 10.13 10.13 10.13s10.13-4.535 10.13-10.13v-40.518h40.518v40.518c0 5.594 4.535 10.13 10.13 10.13 5.594 0 10.13-4.535 10.13-10.13v-40.518h40.518v40.518c0 5.594 4.535 10.13 10.13 10.13s10.129-4.535 10.129-10.13v-40.518h40.518v40.518c0 5.594 4.535 10.13 10.129 10.13s10.13-4.535 10.13-10.13v-40.518h40.518v40.518c0 5.594 4.535 10.13 10.129 10.13s10.13-4.535 10.13-10.13v-40.518h40.518v40.518c0 5.594 4.535 10.13 10.129 10.13s10.13-4.535 10.13-10.13v-40.518h3.474c13.438.038 26.332-5.302 35.808-14.83l37.054-37.054c9.528-9.476 14.868-22.37 14.83-35.808v-3.474h40.518c5.594 0 10.13-4.535 10.13-10.13s-4.535-10.129-10.13-10.129h-40.518v-40.519h40.518c5.594 0 10.13-4.535 10.13-10.13s-4.535-10.129-10.13-10.129h-40.518v-40.518h40.518c5.594 0 10.13-4.535 10.13-10.13 0-5.594-4.535-10.129-10.13-10.129h-40.518v-40.518h40.518c5.594 0 10.13-4.535 10.13-10.129s-4.535-10.13-10.13-10.13h-40.518v-40.518h40.518c5.594 0 10.13-4.535 10.13-10.13 0-5.594-4.535-10.13-10.13-10.13h-40.518v-40.518h40.515zm-60.777 307.359c-.021 8.053-3.217 15.773-8.894 21.485l-37.054 37.054c-5.712 5.677-13.432 8.873-21.485 8.894h-331.092c-8.053-.021-15.773-3.217-21.485-8.894l-37.054-37.054c-5.677-5.712-8.873-13.432-8.894-21.485v-331.092c.021-8.053 3.217-15.773 8.894-21.485l37.054-37.054c5.712-5.677 13.432-8.873 21.485-8.894h331.093c8.053.021 15.773 3.217 21.485 8.894l37.054 37.054c5.677 5.712 8.873 13.432 8.894 21.485v331.092z"/><path id="Shape_12_" d="m354.533 293.756c-33.566 0-60.777 27.211-60.777 60.777s27.211 60.777 60.777 60.777 60.777-27.211 60.777-60.777c-.034-33.553-27.225-60.744-60.777-60.777zm0 101.295c-22.377 0-40.518-18.141-40.518-40.518s18.141-40.518 40.518-40.518c22.378 0 40.518 18.141 40.518 40.518s-18.141 40.518-40.518 40.518z"/><path id="Shape_11_" d="m241.082 309.963c1.612-2.149 2.304-4.851 1.924-7.51-.38-2.66-1.801-5.059-3.95-6.671-17.902-13.427-21.53-38.823-8.104-56.725s38.823-21.53 56.725-8.104c2.895 2.171 6.729 2.633 10.057 1.212s5.645-4.511 6.078-8.104-1.084-7.144-3.979-9.315c-26.853-20.14-64.948-14.698-85.088 12.155s-14.698 64.948 12.155 85.088c4.476 3.356 10.825 2.449 14.182-2.026z"/><path id="Shape_10_" d="m466.139 328.287-14.364-2.026c-2.047-7.161-4.916-14.061-8.549-20.563l8.732-11.548c2.68-3.548 2.734-8.428.132-12.034-7.003-9.678-15.503-18.179-25.182-25.182-3.605-2.602-8.486-2.549-12.034.132l-11.548 8.732c-6.502-3.633-13.402-6.502-20.563-8.549l-2.026-14.364c-.62-4.432-4.075-7.933-8.499-8.61-4.17-.606-8.37-.985-12.581-1.134-1.885-6.454-4.445-12.691-7.638-18.608l8.732-11.548c2.68-3.548 2.734-8.428.132-12.034-6.996-9.684-15.498-18.186-25.182-25.182-3.605-2.602-8.486-2.549-12.034.132l-11.548 8.732c-6.502-3.633-13.402-6.502-20.563-8.549l-2.026-14.364c-.62-4.432-4.075-7.933-8.499-8.61-11.752-1.769-23.702-1.769-35.453 0-4.424.677-7.879 4.178-8.499 8.61l-2.026 14.364c-7.161 2.047-14.061 4.916-20.563 8.549l-11.548-8.732c-3.548-2.68-8.428-2.734-12.034-.132-9.684 6.996-18.186 15.498-25.182 25.182-2.602 3.605-2.549 8.486.132 12.034l8.732 11.548c-3.633 6.502-6.502 13.402-8.549 20.563l-14.364 2.026c-4.432.62-7.933 4.075-8.61 8.499-1.779 11.751-1.779 23.702 0 35.453.682 4.42 4.181 7.87 8.61 8.489l14.313 2.026c2.079 7.154 4.964 14.049 8.6 20.553l-8.732 11.548c-2.68 3.548-2.734 8.428-.132 12.034 3.542 4.844 7.442 9.415 11.669 13.675 4.209 4.169 8.726 8.016 13.513 11.507 3.605 2.602 8.486 2.549 12.034-.132l11.548-8.732c5.918 3.196 12.15 5.773 18.598 7.688.157 4.194.54 8.377 1.145 12.53.681 4.42 4.181 7.87 8.61 8.489l14.323 2.026c2.071 7.156 4.953 14.051 8.59 20.553l-8.732 11.548c-2.68 3.548-2.734 8.428-.132 12.034 6.996 9.684 15.498 18.186 25.182 25.182 3.605 2.602 8.486 2.549 12.034-.132l11.548-8.732c6.503 3.635 13.398 6.521 20.553 8.6l2.026 14.313c.619 4.429 4.069 7.929 8.489 8.61 11.751 1.779 23.702 1.779 35.453 0 4.42-.682 7.87-4.181 8.489-8.61l2.026-14.323c7.156-2.071 14.051-4.953 20.553-8.59l11.548 8.732c3.548 2.68 8.428 2.734 12.034.132 9.678-7.004 18.178-15.504 25.182-25.182 2.602-3.605 2.549-8.486-.132-12.034l-8.732-11.548c3.636-6.502 6.518-13.397 8.59-20.553l14.323-2.026c4.429-.619 7.929-4.069 8.61-8.489 1.779-11.751 1.779-23.702 0-35.453-.66-4.407-4.121-7.865-8.529-8.52zm-258.302 3.474-10.778 8.104c-1.732-1.479-3.474-3.039-5.237-4.812s-3.474-3.657-4.984-5.409l8.104-10.778c2.578-3.415 2.732-8.081.385-11.659-5.375-8.173-9.181-17.276-11.223-26.843-.888-4.167-4.289-7.333-8.509-7.921l-13.29-1.854c-.155-2.37-.233-4.778-.233-7.222s.088-4.862.263-7.253l13.391-1.854c4.254-.592 7.672-3.803 8.529-8.012 1.975-9.549 5.757-18.633 11.142-26.762 2.347-3.578 2.193-8.244-.385-11.659l-8.104-10.778c1.479-1.732 3.039-3.474 4.812-5.237s3.657-3.474 5.409-4.984l10.778 8.104c3.415 2.578 8.081 2.732 11.659.385 8.129-5.385 17.213-9.167 26.762-11.142 4.209-.857 7.42-4.275 8.012-8.529l1.854-13.391c4.829-.344 9.676-.344 14.505 0l1.854 13.391c.592 4.254 3.803 7.672 8.012 8.529 9.549 1.975 18.633 5.757 26.762 11.142 3.578 2.347 8.244 2.193 11.659-.385l10.778-8.104c1.732 1.479 3.474 3.039 5.237 4.812s3.474 3.657 4.984 5.409l-8.104 10.778c-2.581 3.413-2.739 8.079-.395 11.659 2.992 4.585 5.482 9.478 7.425 14.597-.658.091-1.347.132-2.026.233-4.424.677-7.879 4.178-8.499 8.61l-2.026 14.364c-7.161 2.047-14.061 4.916-20.563 8.549l-11.548-8.732c-3.546-2.675-8.42-2.729-12.024-.132-9.694 6.992-18.2 15.498-25.192 25.192-2.597 3.603-2.544 8.478.132 12.024l8.732 11.548c-3.633 6.502-6.502 13.402-8.549 20.563l-14.364 2.026c-4.432.62-7.933 4.075-8.61 8.499-.101.658-.142 1.357-.233 2.026-5.114-1.961-10.007-4.456-14.597-7.445-3.585-2.385-8.286-2.242-11.72.355h.013zm247.737 30.034-13.29 1.854c-4.22.588-7.621 3.754-8.509 7.921-2.042 9.567-5.849 18.67-11.223 26.843-2.347 3.578-2.193 8.244.385 11.659l8.104 10.778c-1.492 1.736-3.096 3.481-4.812 5.237-1.854 1.813-3.647 3.464-5.419 4.984l-10.768-8.104c-3.415-2.578-8.081-2.732-11.659-.385-8.173 5.375-17.276 9.181-26.843 11.223-4.167.888-7.333 4.289-7.921 8.509l-1.854 13.29c-4.836.344-9.69.344-14.526 0l-1.823-13.33c-.588-4.22-3.754-7.621-7.921-8.509-9.567-2.042-18.67-5.849-26.843-11.223-3.578-2.347-8.244-2.193-11.659.385l-10.778 8.104c-1.722-1.479-3.474-3.039-5.237-4.801-1.81-1.864-3.471-3.67-4.984-5.419l8.104-10.778c2.578-3.415 2.732-8.081.385-11.659-5.375-8.173-9.181-17.276-11.223-26.843-.888-4.167-4.289-7.333-8.509-7.921l-13.29-1.854c-.149-2.377-.223-4.785-.223-7.222 0-2.438.088-4.855.263-7.253l13.391-1.854c4.254-.592 7.672-3.803 8.529-8.012 1.975-9.549 5.757-18.633 11.142-26.762 2.347-3.578 2.193-8.244-.385-11.659l-8.104-10.778c1.486-1.722 3.086-3.468 4.801-5.237 1.874-1.823 3.677-3.474 5.429-4.984l10.778 8.104c3.415 2.578 8.081 2.732 11.659.385 8.129-5.385 17.213-9.167 26.762-11.142 4.209-.857 7.42-4.275 8.012-8.529l1.854-13.391c4.829-.344 9.676-.344 14.505 0l1.854 13.391c.592 4.254 3.803 7.672 8.012 8.529 9.55 1.974 18.634 5.756 26.762 11.142 3.578 2.347 8.244 2.193 11.659-.385l10.778-8.104c1.722 1.479 3.474 3.039 5.237 4.801 1.763 1.763 3.474 3.657 4.984 5.419l-8.104 10.778c-2.578 3.415-2.732 8.081-.385 11.659 5.385 8.129 9.167 17.213 11.142 26.762.857 4.209 4.275 7.42 8.529 8.012l13.391 1.854c.061 2.391.091 4.808.091 7.253s-.088 4.866-.263 7.263h.013z"/></g></g></g></svg>