<svg height="512pt" viewBox="0 0 512 512.001" width="512pt" xmlns="http://www.w3.org/2000/svg"><path d="m421.054688 0h-330.105469c-49.925781 0-90.546875 38.84375-90.949219 88.652344v208.523437c.402344 50.042969 41.023438 90.660157 90.949219 90.660157h108.328125v35.007812h-84.089844c-22.308594 0-40.457031 21.070312-40.457031 46.96875v26.546875c0 8.28125 6.71875 15 15 15.640625h332.539062c8.28125-.640625 15-7.355469 15-15.640625v-26.550781c0-25.894532-18.148437-46.964844-40.457031-46.964844h-84.089844v-35.007812h108.328125c49.925781 0 90.546875-40.617188 90.949219-90.542969v-208.523438c-.402344-49.925781-41.019531-88.769531-90.945312-88.769531zm-24.242188 452.84375c4.9375 0 10.457031 7.257812 10.457031 16.96875v11.546875h-302.539062v-11.550781c0-9.710938 5.523437-16.964844 10.457031-16.964844zm-167.535156-30v-35.007812h53.445312v35.007812zm252.320312-125.550781c0 33.382812-27.160156 60.542969-60.542968 60.542969h-330.105469c-33.386719 0-60.546875-27.160157-60.546875-60.542969v-35.738281h451.195312zm0-65.738281h-451.195312v-75.21875h103.179687c3.859375 0 7.570313-1.488282 10.363281-4.152344l29.792969-28.472656 50.648438 56.136718c2.792969 3.097656 6.753906 4.894532 10.925781 4.953125 4.152344.082031 8.179688-1.625 11.0625-4.640625l51.84375-54.304687 36.410156 52.492187c2.800782 4.042969 7.40625 6.453125 12.324219 6.453125h134.644531zm0-76.753907h-126.796875l-42.410156-61.148437c-2.566406-3.703125-6.664063-6.054688-11.15625-6.40625-4.496094-.367188-8.90625 1.335937-12.019531 4.597656l-53.382813 55.910156-50.160156-55.601562c-2.714844-3.007813-6.535156-4.792969-10.582031-4.941406-4.050782-.164063-7.988282 1.34375-10.921875 4.144531l-36.601563 34.984375h-97.164062v-37.570313c0-33.382812 27.160156-60.542969 60.546875-60.542969h330.105469c33.382812 0 60.542968 27.160157 60.542968 60.542969zm0 0"/><path d="m239.058594 324.695312h33.882812c8.285156 0 15-6.71875 15-15 0-8.285156-6.714844-15-15-15h-33.882812c-8.28125 0-15 6.714844-15 15 0 8.28125 6.71875 15 15 15zm0 0"/></svg>