<svg id="Icons"
     height="512" viewBox="0 0 74 74" width="512" xmlns="http://www.w3.org/2000/svg">
  <path d="m36.265 52.465a11.258 11.258 0 0 1 -10.395-15.595 1 1 0 1 1 1.848.766 9.262 9.262 0 1 0 17.809 3.579c0-.3.006-.586.012-.873.009-.443.019-.882 0-1.34a1 1 0 1 1 2-.068c.018.5.008.969 0 1.448 0 .274-.011.55-.011.833a11.269 11.269 0 0 1 -11.263 11.25z"/>
  <path
    d="m46.541 39.968a1 1 0 0 1 -.929-.628c-.437-1.09-1.889-3.912-3.674-4.89-1.757 1.306-7.847 5.393-13.762 4.24-3.263-.637-5.894-2.747-7.82-6.271a1 1 0 0 1 1.183-1.432c.127.039 3.346.968 6.376-2.3.227-.22 4.645-4.421 9.471-3.987a7.894 7.894 0 0 1 5.558 3.2 5.866 5.866 0 0 1 4.818 1.907c1.553 1.965 1.455 5.171-.293 9.531a1 1 0 0 1 -.928.628zm-23.368-6.84a8.733 8.733 0 0 0 5.38 3.6c5.931 1.163 12.547-4.151 12.613-4.2a1 1 0 0 1 .959-.17c1.873.648 3.328 2.537 4.244 4.07.713-2.481.657-4.317-.177-5.372-1.136-1.439-3.542-1.122-3.568-1.12a1 1 0 0 1 -.959-.4 6.169 6.169 0 0 0 -4.453-2.834c-3.921-.36-7.832 3.358-7.871 3.4a8.825 8.825 0 0 1 -6.168 3.026z"/>
  <path d="m53.009 58.82a.989.989 0 0 1 -.625-.221 4.536 4.536 0 0 0 -1.442-.767l-.168-.06a1 1 0 1 1 .672-1.884l.14.05a6.413 6.413 0 0 1 2.05 1.1 1 1 0 0 1 -.627 1.779z"/>
  <path d="m46.01 56.181a1.006 1.006 0 0 1 -.308-.049l-5.019-1.62a1 1 0 0 1 .615-1.9l5.019 1.621a1 1 0 0 1 -.307 1.952z"/>
  <path d="m55.16 72h-38.48a1 1 0 0 1 -1-1v-8.75a6.62 6.62 0 0 1 4.6-6.322l10.259-3.32a1 1 0 0 1 .615 1.9l-10.254 3.324a4.627 4.627 0 0 0 -3.22 4.418v7.75h36.48v-6.28a1 1 0 0 1 2 0v7.28a1 1 0 0 1 -1 1z"/>
  <path d="m40.112 63.379a1 1 0 0 1 -.736-.323l-4.315-4.695a1 1 0 0 1 .115-1.46l5.2-4.122a1 1 0 0 1 1.242 1.567l-4.357 3.454 2.672 2.906 3.759-6.427a1 1 0 0 1 1.727 1.01l-4.443 7.595a1 1 0 0 1 -.757.49c-.035.003-.072.005-.107.005z"/>
  <path d="m31.482 63.379a1.122 1.122 0 0 1 -.115-.006 1 1 0 0 1 -.756-.5l-4.264-7.573a1 1 0 0 1 1.742-.981l3.589 6.372 2.673-2.908-4.142-3.45a1 1 0 1 1 1.279-1.537l4.949 4.122a1 1 0 0 1 .1 1.445l-4.314 4.7a1 1 0 0 1 -.741.316z"/>
  <path d="m46.342 72h-20.842a1 1 0 0 1 -1-1v-4.771a1 1 0 0 1 2 0v3.771h18.842v-3.771a1 1 0 0 1 2 0v4.771a1 1 0 0 1 -1 1z"/>
  <path d="m40.99 54.562a1 1 0 0 1 -1-1v-3.25a1 1 0 0 1 2 0v3.25a1 1 0 0 1 -1 1z"/>
  <path d="m30.848 54.562a1 1 0 0 1 -1-1v-3.645a1 1 0 0 1 2 0v3.645a1 1 0 0 1 -1 1z"/>
  <path d="m64.772 26.491a1 1 0 0 1 -.465-.115l-4.8-2.522-4.8 2.522a1 1 0 0 1 -1.45-1.054l.917-5.343-3.874-3.779a1 1 0 0 1 .555-1.706l5.364-.779 2.4-4.861a1.041 1.041 0 0 1 1.793 0l2.4 4.861 5.363.779a1 1 0 0 1 .555 1.706l-3.882 3.783.916 5.343a1 1 0 0 1 -.986 1.169zm-11.629-10.313 2.807 2.736a1 1 0 0 1 .287.885l-.663 3.864 3.471-1.824a1 1 0 0 1 .931 0l3.468 1.824-.662-3.863a1 1 0 0 1 .287-.885l2.807-2.736-3.876-.564a1 1 0 0 1 -.753-.548l-1.737-3.515-1.736 3.515a1 1 0 0 1 -.753.548z"/>
  <path
    d="m42.264 20.2a.991.991 0 0 1 -.465-.115l-4.799-2.523-4.8 2.522a1 1 0 0 1 -1.45-1.054l.917-5.343-3.882-3.787a1 1 0 0 1 .555-1.7l5.364-.78 2.4-4.86a1.04 1.04 0 0 1 1.792 0l2.4 4.86 5.364.78a1 1 0 0 1 .555 1.7l-3.883 3.783.917 5.343a1 1 0 0 1 -.985 1.169zm-5.264-4.768a1 1 0 0 1 .465.114l3.471 1.825-.664-3.864a1 1 0 0 1 .288-.885l2.807-2.736-3.879-.564a1 1 0 0 1 -.753-.547l-1.735-3.516-1.735 3.516a1 1 0 0 1 -.753.547l-3.879.564 2.807 2.736a1 1 0 0 1 .288.885l-.664 3.864 3.471-1.825a1 1 0 0 1 .465-.114z"/>
  <path
    d="m9.228 26.491a1 1 0 0 1 -.986-1.169l.916-5.343-3.882-3.779a1 1 0 0 1 .555-1.706l5.363-.779 2.4-4.861a1.041 1.041 0 0 1 1.793 0l2.4 4.861 5.364.779a1 1 0 0 1 .555 1.706l-3.883 3.783.917 5.343a1 1 0 0 1 -1.45 1.054l-4.8-2.522-4.8 2.522a1 1 0 0 1 -.462.111zm5.262-4.767a.991.991 0 0 1 .465.115l3.471 1.824-.663-3.863a1 1 0 0 1 .287-.885l2.807-2.736-3.878-.563a1 1 0 0 1 -.753-.548l-1.736-3.516-1.735 3.515a1 1 0 0 1 -.753.548l-3.878.563 2.807 2.736a1 1 0 0 1 .287.885l-.662 3.864 3.468-1.824a1 1 0 0 1 .466-.115z"/>
</svg>
